<svg width="71" height="70" viewBox="0 0 71 70" fill="none" xmlns="http://www.w3.org/2000/svg"><g clip-path="url(#clip0_58_118)"><path d="M18.6728 47.6H52.2728C52.6441 47.6 53.0002 47.4525 53.2628 47.19C53.5253 46.9274 53.6728 46.5713 53.6728 46.2C53.6728 45.8287 53.5253 45.4726 53.2628 45.2101C53.0002 44.9475 52.6441 44.8 52.2728 44.8H18.6728C18.3015 44.8 17.9454 44.9475 17.6829 45.2101C17.4203 45.4726 17.2728 45.8287 17.2728 46.2C17.2728 46.5713 17.4203 46.9274 17.6829 47.19C17.9454 47.4525 18.3015 47.6 18.6728 47.6Z" fill="#808080"/><path d="M60.6728 64.4H52.2728C51.9015 64.4 51.5454 64.2525 51.2829 63.99C51.0203 63.7274 50.8728 63.3713 50.8728 63V29.435C50.8728 29.0637 51.0203 28.7076 51.2829 28.4451C51.5454 28.1825 51.9015 28.035 52.2728 28.035H60.6728C61.0441 28.035 61.4002 28.1825 61.6628 28.4451C61.9253 28.7076 62.0728 29.0637 62.0728 29.435V63C62.0728 63.3713 61.9253 63.7274 61.6628 63.99C61.4002 64.2525 61.0441 64.4 60.6728 64.4ZM53.6728 61.6H59.2728V30.835H53.6728V61.6Z" fill="black"/><path d="M69.0728 58.8H60.6728C60.3015 58.8 59.9454 58.6525 59.6829 58.3899C59.4203 58.1274 59.2728 57.7713 59.2728 57.4V35C59.2728 34.6287 59.4203 34.2726 59.6829 34.01C59.9454 33.7475 60.3015 33.6 60.6728 33.6H69.0728C69.4441 33.6 69.8002 33.7475 70.0628 34.01C70.3253 34.2726 70.4728 34.6287 70.4728 35V57.4C70.4728 57.7713 70.3253 58.1274 70.0628 58.3899C69.8002 58.6525 69.4441 58.8 69.0728 58.8ZM62.0728 56H67.6728V36.4H62.0728V56ZM18.6728 64.4H11.6728C11.3015 64.4 10.9454 64.2525 10.6829 63.9899C10.4203 63.7274 10.2728 63.3713 10.2728 63V29.4C10.2728 29.0287 10.4203 28.6726 10.6829 28.41C10.9454 28.1475 11.3015 28 11.6728 28H18.6728C19.0441 28 19.4002 28.1475 19.6628 28.41C19.9253 28.6726 20.0728 29.0287 20.0728 29.4V63C20.0728 63.3713 19.9253 63.7274 19.6628 63.9899C19.4002 64.2525 19.0441 64.4 18.6728 64.4ZM13.0728 61.6H17.2728V30.8H13.0728V61.6Z" fill="black"/><path d="M11.6728 58.8H1.87278C1.50148 58.8 1.14538 58.6525 0.882829 58.39C0.620278 58.1274 0.472778 57.7713 0.472778 57.4V35C0.472778 34.6287 0.620278 34.2726 0.882829 34.0101C1.14538 33.7475 1.50148 33.6 1.87278 33.6H11.6728C12.0441 33.6 12.4002 33.7475 12.6627 34.0101C12.9253 34.2726 13.0728 34.6287 13.0728 35V57.4C13.0728 57.7713 12.9253 58.1274 12.6627 58.39C12.4002 58.6525 12.0441 58.8 11.6728 58.8ZM3.27278 56H10.2728V36.4H3.27278V56Z" fill="black"/><path d="M35.4728 39.2C35.1021 39.1984 34.7472 39.0499 34.4858 38.787L20.4858 24.829C18.3963 22.805 17.1697 20.0517 17.0625 17.1446C16.9553 14.2374 17.9756 11.4013 19.9104 9.22886C21.8452 7.05639 24.5447 5.71568 27.4448 5.48686C30.3449 5.25805 33.2213 6.15884 35.4728 8.00101C37.7335 6.2755 40.5627 5.46787 43.3936 5.7399C46.2245 6.01192 48.8481 7.34351 50.7388 9.46793C52.6295 11.5924 53.6478 14.3527 53.5896 17.1961C53.5313 20.0394 52.4009 22.7558 50.4248 24.801L36.4668 38.787C36.3366 38.918 36.1817 39.022 36.0111 39.0929C35.8405 39.1637 35.6576 39.2002 35.4728 39.2ZM28.4728 8.40001C27.3592 8.39634 26.256 8.61415 25.2273 9.04076C24.1986 9.46738 23.265 10.0943 22.4808 10.885C20.8941 12.4755 20.003 14.6304 20.003 16.877C20.003 19.1236 20.8941 21.2785 22.4808 22.869L35.4728 35.819L48.4438 22.848C50.033 21.2598 50.9262 19.1053 50.9268 16.8585C50.9275 14.6117 50.0356 12.4567 48.4473 10.8675C46.8591 9.27833 44.7046 8.38517 42.4578 8.38451C40.211 8.38386 38.056 9.27576 36.4668 10.864C36.3366 10.995 36.1817 11.099 36.0111 11.1699C35.8405 11.2407 35.6576 11.2772 35.4728 11.277C35.1021 11.2754 34.7472 11.1269 34.4858 10.864C33.6974 10.0745 32.7597 9.45006 31.7273 9.027C30.6949 8.60395 29.5885 8.3908 28.4728 8.40001Z" fill="#8468EA"/></g><defs><clipPath id="clip0_58_118"><rect width="70" height="70" fill="white" transform="translate(0.472778)"/></clipPath></defs></svg>