<?xml version="1.0" encoding="utf-8"?>
<!-- Generator: Adobe Illustrator 27.9.4, SVG Export Plug-In . SVG Version: 9.03 Build 54784)  -->
<svg version="1.1" id="Layer_1" xmlns="http://www.w3.org/2000/svg" xmlns:xlink="http://www.w3.org/1999/xlink" x="0px" y="0px"
	 viewBox="0 0 800 800" style="enable-background:new 0 0 800 800;" xml:space="preserve">
<style type="text/css">
	.st0{fill:none;stroke:#000000;stroke-width:29;stroke-miterlimit:50;}
	.st1{fill:none;stroke:#000000;stroke-width:29;stroke-miterlimit:50;stroke-dasharray:112.5,50;}
</style>
<path class="st0" d="M726.6,471.8l-518.9,209l-24.1-68.2c0,0,51-26.6,34.2-73s-77.4-36.3-77.4-36.3L116.9,433l520.6-205.4l25.8,60.9
	c0,0-55.5,33.9-38.2,81.9s78.1,36.8,78.1,36.8L726.6,471.8z"/>
<line class="st1" x1="231.2" y1="388" x2="259.6" y2="452.2"/>
<line class="st1" x1="272.9" y1="483.1" x2="296.9" y2="537.4"/>
<line class="st1" x1="305.9" y1="563" x2="334.4" y2="627.2"/>
<path class="st0" d="M117.5,431.8L519,133.9l42.2,50.8c0,0-43.4,48.6-12.5,89.4"/>
</svg>
