<?xml version="1.0" ?><!DOCTYPE svg  PUBLIC '-//W3C//DTD SVG 1.1//EN'  'http://www.w3.org/Graphics/SVG/1.1/DTD/svg11.dtd'><svg height="8.4666mm" style="shape-rendering:geometricPrecision; text-rendering:geometricPrecision; image-rendering:optimizeQuality; fill-rule:evenodd; clip-rule:evenodd" version="1.1" viewBox="0 0 846.66 846.66" width="8.4666mm" xml:space="preserve" xmlns="http://www.w3.org/2000/svg" xmlns:xlink="http://www.w3.org/1999/xlink"><defs><style type="text/css">
   <![CDATA[
    .fil0 {fill:black;fill-rule:nonzero}
   ]]>
  </style></defs><g id="Layer_x0020_1"><path class="fil0" d="M210.88 69.79l424.9 0c110.17,0 200.22,90.06 200.22,200.23l0 306.62c0,110.17 -90.05,200.23 -200.22,200.23l-424.9 0c-110.17,0 -200.22,-90.06 -200.22,-200.23l0 -306.62c0,-110.17 90.05,-200.23 200.22,-200.23zm5.56 617.7c-27.14,0 -27.14,-41.26 0,-41.26l413.79 0c27.13,0 27.13,41.26 0,41.26l-413.79 0zm335.82 -310.31l66.02 0c11.39,0 20.63,9.23 20.63,20.62l0 158.21 155.84 0 0 -285.99c0,-87.39 -71.58,-158.97 -158.97,-158.97l-424.9 0c-87.39,0 -158.97,71.58 -158.97,158.97l0 285.99 155.84 0 0 -251.04c0,-11.39 9.24,-20.63 20.63,-20.63l66.02 0c11.39,0 20.62,9.24 20.62,20.63l0 251.04 54.67 0 0 -251.04c0,-11.39 9.24,-20.63 20.63,-20.63l66.02 0c11.39,0 20.63,9.24 20.63,20.63l0 251.04 54.67 0 0 -158.21c0,-11.39 9.23,-20.62 20.62,-20.62zm45.39 41.25l-24.76 0 0 137.58 24.76 0 0 -137.58zm-161.94 -92.83l-24.76 0 0 230.41 24.76 0 0 -230.41zm-161.94 0l-24.76 0 0 230.41 24.76 0 0 -230.41zm519.63 271.67c-246.71,0 -493.43,0 -740.14,0 10.32,78.64 78.12,138.34 157.62,138.34l424.9 0c79.5,0 147.3,-59.7 157.62,-138.34z"/></g></svg>