<?xml version="1.0" encoding="utf-8"?>
<!-- Generator: Adobe Illustrator 27.9.4, SVG Export Plug-In . SVG Version: 9.03 Build 54784)  -->
<svg version="1.1" id="Layer_1" xmlns="http://www.w3.org/2000/svg" xmlns:xlink="http://www.w3.org/1999/xlink" x="0px" y="0px"
	 viewBox="0 0 24 24" style="enable-background:new 0 0 24 24;" xml:space="preserve">
<g>
	<path d="M23.6,7c0-2.6-2-4.6-4.6-4.6h-1.4V1c0-0.4-0.2-0.6-0.6-0.6S16.4,0.6,16.4,1v1.4H7.6V1c0-0.4-0.2-0.6-0.6-0.6S6.4,0.6,6.4,1
		v1.4H5c-2.6,0-4.6,2-4.6,4.6v12c0,2.6,2,4.6,4.6,4.6h4c0.4,0,0.6-0.2,0.6-0.6S9.4,22.4,9,22.4H5c-1.9,0-3.4-1.4-3.4-3.4V9.6H23
		c0.4,0,0.6-0.2,0.6-0.6V7z M22.4,8.4H1.6V7c0-1.9,1.4-3.4,3.4-3.4h14c1.9,0,3.4,1.4,3.4,3.4V8.4z"/>
	<path d="M10,17.4H6c-0.4,0-0.6,0.2-0.6,0.6s0.2,0.6,0.6,0.6h4c0.4,0,0.6-0.2,0.6-0.6S10.4,17.4,10,17.4z"/>
	<path d="M13,13.4H6c-0.4,0-0.6,0.2-0.6,0.6s0.2,0.6,0.6,0.6h7c0.4,0,0.6-0.2,0.6-0.6S13.4,13.4,13,13.4z"/>
	<path d="M12.4,21.5V23c0,0.2,0,0.4,0.1,0.5c0.1,0.1,0.3,0.2,0.5,0.2h1.6c1,0,1.9-0.4,2.5-1l5.7-5.7c0.5-0.5,0.8-1.1,0.8-1.8
		c0-0.7-0.3-1.4-0.7-1.8c-0.5-0.5-1.2-0.8-1.8-0.8s-1.3,0.3-1.8,0.8L13.5,19C12.9,19.6,12.4,20.5,12.4,21.5z M13.6,21.4
		c0-0.7,0.2-1.2,0.7-1.7l5.7-5.7c0.6-0.6,1.5-0.6,2,0c0.3,0.3,0.4,0.6,0.4,1s-0.1,0.7-0.4,1l-5.7,5.7c-0.5,0.5-1.1,0.7-1.7,0.7h-1.1
		v-0.9l0,0V21.4z"/>
</g>
</svg>
