<?xml version="1.0" encoding="utf-8"?>
<!-- Generator: Adobe Illustrator 27.9.4, SVG Export Plug-In . SVG Version: 9.03 Build 54784)  -->
<svg version="1.1" id="Material_Expand" xmlns="http://www.w3.org/2000/svg" xmlns:xlink="http://www.w3.org/1999/xlink" x="0px"
	 y="0px" viewBox="0 0 64 64" style="enable-background:new 0 0 64 64;" xml:space="preserve">
<path d="M60.8,62.5v-8.1c0-0.6-0.4-1.2-0.9-1.4l-9.7-4.3l0.1-0.5c0.3-1.1,0.5-2.2,0.5-3.3l0-0.4l9-4c0.6-0.2,0.9-0.8,0.9-1.4V31
	h-3.1v7.1l-6.8,3v-13l8.9-4c0.6-0.2,0.9-0.8,0.9-1.4v-8.1h-3.1v7.1l-6.9,3l-0.2-0.7c-0.8-2.4-3.1-4-5.6-4h-2.8v-5
	c0-1.4-0.3-2.7-1-3.9L41,10.7l4-3.2c0.4-0.3,0.6-0.7,0.6-1.2V1.5h-3.1v4.1l-3.6,2.9l-0.4-0.3C37.2,7.4,35.7,7,34.2,7h-4.4
	c-1.5,0-3,0.4-4.3,1.2l-0.4,0.3l-3.6-2.9V1.5h-3.1v4.8c0,0.5,0.2,0.9,0.6,1.2l4,3.2l-0.3,0.5c-0.7,1.2-1,2.5-1,3.9v5h-2.8
	c-2.5,0-4.8,1.6-5.6,4l-0.2,0.7l-6.9-3v-7.1H3.2v8.1c0,0.6,0.4,1.2,0.9,1.4l8.9,4v13l-6.8-3V31H3.2v8.1c0,0.6,0.4,1.2,0.9,1.4l9,4
	l0,0.4c0.1,1.1,0.3,2.2,0.5,3.3l0.1,0.5L4.1,53c-0.6,0.2-0.9,0.8-0.9,1.4v8.1h3.1v-7.1l8.6-3.8l0.3,0.6c2.3,4.5,6.2,7.9,11,9.4
	c4.8,1.6,10,1.2,14.5-1.1c3.6-1.8,6.5-4.7,8.3-8.3l0.3-0.6l8.6,3.8v7.1H60.8z M24.8,15.1c0-2.8,2.3-5,5-5h4.4c2.8,0,5,2.3,5,5v5
	H24.8V15.1z M30.5,59.3l-0.7-0.1c-7.8-1.1-13.6-7.9-13.7-15.8V31.9h14.4V59.3z M47.9,43.5c0,7.9-5.9,14.6-13.7,15.8l-0.7,0.1V31.9
	h14.4V43.5z M47.9,28.8H16.1V26c0-1.6,1.3-2.8,2.8-2.8h26.2c1.6,0,2.8,1.3,2.8,2.8V28.8z"/>
</svg>
