<?xml version="1.0" encoding="utf-8"?>
<!-- Generator: Adobe Illustrator 27.9.4, SVG Export Plug-In . SVG Version: 9.03 Build 54784)  -->
<svg version="1.1" id="Layer_1" xmlns="http://www.w3.org/2000/svg" xmlns:xlink="http://www.w3.org/1999/xlink" x="0px" y="0px"
	 viewBox="0 0 32 32" style="enable-background:new 0 0 32 32;" xml:space="preserve">
<style type="text/css">
	.st0{fill:#FFFFFF;}
	.st1{fill:none;}
</style>
<g id="Layer_2_00000088851967331225820550000016159334536577124501_">
	<path d="M19.2,25.1h-6.5c-0.4,0-0.7,0.3-0.7,0.7c0,2.2,1.8,3.9,3.9,3.9s3.9-1.8,3.9-3.9C19.9,25.4,19.6,25.1,19.2,25.1z M18.2,27
		c-0.2,0.4-0.5,0.7-0.9,0.9c-0.4,0.2-0.8,0.3-1.3,0.3c-0.9,0-1.7-0.5-2.2-1.3l-0.3-0.6h5.1L18.2,27z"/>
	<g>
		<path d="M18.2,6.3h-4.3c-0.6,0-1.1-0.5-1.1-1.1C12.8,3.4,14.2,2,16,2c1.8,0,3.2,1.5,3.2,3.2C19.2,5.8,18.8,6.3,18.2,6.3z M16,4.1
			L16,4.1z"/>
		<path class="st0" d="M18.2,6.7h-4.3c-0.8,0-1.5-0.7-1.5-1.5c0-2,1.6-3.6,3.6-3.6c2,0,3.6,1.6,3.6,3.6C19.6,6,19,6.7,18.2,6.7z
			 M16,2.4c-1.6,0-2.9,1.3-2.9,2.9c0,0.4,0.3,0.7,0.7,0.7h4.3c0.4,0,0.7-0.3,0.7-0.7C18.9,3.6,17.6,2.4,16,2.4z"/>
	</g>
	<path d="M25.6,19.9l-0.2-0.1v-5.9c0-5.2-4.2-9.4-9.4-9.4h-0.1c-5.1,0-9.3,4.2-9.3,9.4v5.9l-0.2,0.1c-1.9,1.3-3.1,3.6-3.1,5.9
		c0,0.4,0.3,0.7,0.7,0.7h23.8c0.4,0,0.7-0.3,0.7-0.7C28.6,23.4,27.5,21.2,25.6,19.9z M27.2,25.1H4.8l0.1-0.5c0.3-1.6,1.3-3,2.8-3.9
		c0.2-0.1,0.4-0.4,0.4-0.6v-6.3c0-4.4,3.6-7.9,7.9-7.9s7.9,3.6,7.9,7.9v6.3c0,0.3,0.1,0.5,0.4,0.6c1.4,0.8,2.4,2.2,2.8,3.9
		L27.2,25.1z"/>
</g>
<g id="frame">
	<rect class="st1" width="32" height="32"/>
</g>
</svg>
