<?xml version="1.0" ?><!DOCTYPE svg  PUBLIC '-//W3C//DTD SVG 1.1//EN'  'http://www.w3.org/Graphics/SVG/1.1/DTD/svg11.dtd'><svg xmlns="http://www.w3.org/2000/svg" xmlns:xlink="http://www.w3.org/1999/xlink" version="1.1" id="Layer_1" width="512px" height="512px" viewBox="0 0 512 512" enable-background="new 0 0 512 512" xml:space="preserve"><path d="M392.599,13.5H119.401C61.007,13.5,13.5,61.007,13.5,119.401v273.198c0,58.394,47.507,105.901,105.901,105.901h273.198  c58.394,0,105.901-47.507,105.901-105.901V119.401C498.5,61.007,450.993,13.5,392.599,13.5z M119.401,38.5h273.198  c44.609,0,80.901,36.292,80.901,80.901v103.461l-25.566-27.216c-13.353-14.214-31.229-22.042-50.333-22.043c-0.001,0,0.001,0,0,0  c-19.104,0-36.981,7.829-50.334,22.043l-67.436,71.788c-8.579,9.131-19.983,14.161-32.114,14.161  c-12.13,0-23.535-5.029-32.112-14.161l-25.582-27.233c-13.354-14.215-31.229-22.043-50.334-22.043  c-19.105,0-36.981,7.829-50.334,22.043L38.5,294.335V119.401C38.5,74.792,74.792,38.5,119.401,38.5z M392.599,473.5H119.401  c-44.609,0-80.901-36.292-80.901-80.901V330.85l69.075-73.531c8.578-9.131,19.982-14.161,32.113-14.161s23.535,5.029,32.113,14.161  l25.582,27.233c13.354,14.214,31.229,22.043,50.334,22.043c0.001,0-0.001,0,0,0c19.104,0,36.981-7.83,50.334-22.043l67.436-71.788  c8.578-9.131,19.983-14.16,32.114-14.16s23.535,5.029,32.112,14.16l43.787,46.612v133.224  C473.5,437.208,437.208,473.5,392.599,473.5z M256,193.639c32.124,0,58.259-26.135,58.259-58.259S288.124,77.121,256,77.121  s-58.259,26.135-58.259,58.259S223.876,193.639,256,193.639z M256,102.121c18.339,0,33.259,14.92,33.259,33.259  s-14.92,33.259-33.259,33.259s-33.259-14.92-33.259-33.259S237.661,102.121,256,102.121z"/></svg>