<?xml version="1.0" ?><svg data-name="rss feed cast streaming" id="rss_feed_cast_streaming" viewBox="0 0 32 32" xmlns="http://www.w3.org/2000/svg"><title/><path d="M4,21a1,1,0,0,0,0,2,1,1,0,0,1,1,1,1,1,0,0,0,2,0A3,3,0,0,0,4,21Z"/><path d="M28.12,7.88A3,3,0,0,0,26,7H6a3,3,0,0,0-3,3,1,1,0,0,0,2,0A1,1,0,0,1,6,9H26a1,1,0,0,1,1,1V22a1,1,0,0,1-1,1H18a1,1,0,0,0,0,2h8a3,3,0,0,0,3-3V10A3,3,0,0,0,28.12,7.88Z"/><path d="M4,17a1,1,0,0,0,0,2,5,5,0,0,1,5,5,1,1,0,0,0,2,0A7,7,0,0,0,4,17Z"/><path d="M4,13a1,1,0,0,0,0,2,9,9,0,0,1,9,9,1,1,0,0,0,2,0A11,11,0,0,0,4,13Z"/></svg>