<?xml version="1.0" encoding="utf-8"?>
<!-- Generator: Adobe Illustrator 27.9.4, SVG Export Plug-In . SVG Version: 9.03 Build 54784)  -->
<svg version="1.1" id="Layer_1" xmlns="http://www.w3.org/2000/svg" xmlns:xlink="http://www.w3.org/1999/xlink" x="0px" y="0px"
	 viewBox="0 0 32 32" style="enable-background:new 0 0 32 32;" xml:space="preserve">
<style type="text/css">
	.st0{fill:none;}
</style>
<g id="Layer_2_00000046337955694790804180000004773504178509495428_">
	<path d="M28.8,8.8c-0.1-2.6-2.2-4.6-4.7-4.5H8c0,0-0.1,0-0.1,0c-2.5,0-4.6,2-4.6,4.5V27c0,0.3,0.2,0.6,0.5,0.7
		c0.1,0,0.2,0.1,0.3,0.1h0c0,0,0,0,0,0c0.2,0,0.4-0.1,0.5-0.2l4.8-4.8H24c0,0,0.1,0,0.1,0c1.2,0,2.3-0.5,3.2-1.3
		c0.9-0.9,1.4-2,1.4-3.3V8.8z M27.2,18.2c-0.1,1.7-1.5,3-3.1,3c0,0-0.1,0-0.1,0H9c-0.2,0-0.4,0.1-0.5,0.2l-3.7,3.7V8.8
		c0.1-1.7,1.5-3,3.1-3c0,0,0.1,0,0.1,0h16c1.7-0.1,3.2,1.3,3.2,3V18.2z"/>
	<circle cx="16" cy="13.5" r="1.2"/>
	<circle cx="21.5" cy="13.5" r="1.2"/>
	<circle cx="10.5" cy="13.5" r="1.2"/>
</g>
<g id="frame">
	<rect class="st0" width="32" height="32"/>
</g>
</svg>
