<?xml version="1.0" encoding="utf-8"?>
<!-- Generator: Adobe Illustrator 27.9.4, SVG Export Plug-In . SVG Version: 9.03 Build 54784)  -->
<svg version="1.1" id="Layer_1" xmlns="http://www.w3.org/2000/svg" xmlns:xlink="http://www.w3.org/1999/xlink" x="0px" y="0px"
	 viewBox="0 0 24 24" style="enable-background:new 0 0 24 24;" xml:space="preserve">
<style type="text/css">
	.st0{fill:#8468EA;}
</style>
<path class="st0" d="M19,2h-1V1c0-0.6-0.4-1-1-1s-1,0.4-1,1v1H8V1c0-0.6-0.4-1-1-1S6,0.4,6,1v1H5C2.2,2,0,4.2,0,7v12
	c0,2.8,2.2,5,5,5h4c0.6,0,1-0.4,1-1s-0.4-1-1-1H5c-1.7,0-3-1.3-3-3v-9h21c0.6,0,1-0.4,1-1V7C24,4.2,21.8,2,19,2z M22,8H2V7
	c0-1.7,1.3-3,3-3h14c1.7,0,3,1.3,3,3V8z M18.9,12.9l-5.7,5.7c-0.8,0.7-1.2,1.8-1.2,2.8V23c0,0.6,0.4,1,1,1h1.6
	c1.1,0,2.1-0.4,2.8-1.2l5.7-5.7c0.6-0.6,0.9-1.3,0.9-2.1s-0.3-1.6-0.9-2.1C22,11.7,20,11.7,18.9,12.9z M21.7,15.7L16,21.4
	c-0.4,0.4-0.9,0.6-1.4,0.6H14v-0.6c0-0.5,0.2-1,0.6-1.4l5.7-5.7c0.4-0.4,1-0.4,1.4,0c0.2,0.2,0.3,0.4,0.3,0.7S21.9,15.5,21.7,15.7z
	 M5,14c0-0.6,0.4-1,1-1h7c0.6,0,1,0.4,1,1s-0.4,1-1,1H6C5.4,15,5,14.6,5,14z M11,18c0,0.6-0.4,1-1,1H6c-0.6,0-1-0.4-1-1s0.4-1,1-1h4
	C10.6,17,11,17.4,11,18z"/>
</svg>
