<?xml version="1.0" ?><svg data-name="Capa 1" id="Capa_1" viewBox="0 0 20 19.84" xmlns="http://www.w3.org/2000/svg"><path d="M11.34,5.71H6.25a.38.38,0,1,0,0,.75h5.09a.38.38,0,0,0,0-.75Z"/><path d="M11.71,8.35A.37.37,0,0,0,11.34,8H6.25a.37.37,0,0,0-.38.37.38.38,0,0,0,.38.38h5.09A.38.38,0,0,0,11.71,8.35Z"/><path d="M6.25,10.24a.38.38,0,1,0,0,.75H8.77a.38.38,0,1,0,0-.75Z"/><path d="M8.83,14.67H4.75a.87.87,0,0,1-.87-.87v-10a.87.87,0,0,1,.87-.88h8a.87.87,0,0,1,.87.88V8.9a.38.38,0,1,0,.75,0V3.78a1.63,1.63,0,0,0-1.62-1.63h-8A1.63,1.63,0,0,0,3.13,3.78v10a1.62,1.62,0,0,0,1.62,1.62H8.83a.37.37,0,0,0,.38-.37A.38.38,0,0,0,8.83,14.67Z"/><path d="M16.85,15.81s0-.05,0-.08v0s0,0,0-.05a.13.13,0,0,0,0-.06,9.28,9.28,0,0,1-.25-2.31,3.63,3.63,0,0,0-3.38-3.65,3.58,3.58,0,0,0-3.39,3.65,8.89,8.89,0,0,1-.25,2.31s0,0,0,.05,0,0,0,.06v0a11082239220553.34,11082239220553.34,0,0,0,0,.14.21.21,0,0,0,0,.06l0,.06.06,0,.07,0h.07a.11.11,0,0,0,.06,0h1.68a1.6,1.6,0,0,0,3.19,0h1.68l.11,0h0l.07,0,0,0,.05-.06a.21.21,0,0,0,0-.06Zm-3.63-5.42a2.86,2.86,0,0,1,2.63,2.9A11.39,11.39,0,0,0,16,15.34H10.41a11.21,11.21,0,0,0,.17-2.05A2.82,2.82,0,0,1,13.22,10.39Zm.84,5.71a.85.85,0,0,1-1.69,0h1.69Z"/></svg>