<?xml version="1.0" encoding="utf-8"?>
<!-- Generator: Adobe Illustrator 27.9.4, SVG Export Plug-In . SVG Version: 9.03 Build 54784)  -->
<svg version="1.1" id="Layer_1" xmlns:serif="http://www.serif.com/"
	 xmlns="http://www.w3.org/2000/svg" xmlns:xlink="http://www.w3.org/1999/xlink" x="0px" y="0px" viewBox="0 0 1080 1080"
	 style="enable-background:new 0 0 1080 1080;" xml:space="preserve">
<style type="text/css">
	.st0{fill-rule:evenodd;clip-rule:evenodd;}
</style>
<g>
	<path class="st0" d="M525.9,881.6l68.5,0.1c18.9,0,34.3-15.3,34.3-34.2c0-18.9-15.3-34.3-34.2-34.3l-68.5-0.1
		c-18.9,0-34.3,15.3-34.3,34.2C491.7,866.2,507,881.6,525.9,881.6L525.9,881.6z"/>
	<path class="st0" d="M526,1004.7h239.7c24.2,0,47-9.4,64.1-26.5c17.1-17.1,26.5-39.8,26.5-64V163.2c0-50-40.6-90.6-90.6-90.6H354.7
		c-50,0-90.6,40.6-90.6,90.6v273.3c0,12.2,9.9,22.1,22.1,22.1s22.1-9.9,22.1-22.1V255.2h503.8V688l-285.7-0.2c0,0,0,0,0,0
		c-5.9,0-11.4,2.3-15.5,6.4c-4.2,4.2-6.5,9.7-6.5,15.6c0,5.9,2.3,11.4,6.4,15.6c4.2,4.2,9.7,6.5,15.6,6.5l285.7,0.2v182
		c0,12.3-5,24.2-13.6,32.9c-8.6,8.6-20.5,13.6-32.8,13.6H526c-12.2,0-22.1,9.9-22.1,22.1C503.9,994.8,513.8,1004.7,526,1004.7z
		 M308.2,211.1v-47.9c0-25.6,20.8-46.4,46.4-46.4h411c25.6,0,46.4,20.9,46.4,46.4v47.9H308.2z"/>
	<path class="st0" d="M411.2,847.8c0-50.2-40.9-91.1-91.1-91.1h-68.5c-25.3,0-45.9-20.6-45.9-45.9c0-25.3,20.6-45.9,45.9-45.9h102.8
		c12.5,0,22.6-10.1,22.6-22.6s-10.1-22.6-22.6-22.6h-45.9V572c0-12.5-10.1-22.6-22.6-22.6s-22.6,10.1-22.6,22.6v47.6h-11.7
		c-50.2,0-91.1,40.9-91.1,91.1c0,50.2,40.9,91.1,91.1,91.1h68.5c25.3,0,45.9,20.6,45.9,45.9s-20.6,45.9-45.9,45.9H217.3
		c-12.5,0-22.6,10.1-22.6,22.6c0,12.5,10.1,22.6,22.6,22.6h46.3v45.9c0,12.5,10.1,22.6,22.6,22.6s22.6-10.1,22.6-22.6v-45.9l11.6,0
		C370.5,938.7,411.2,897.8,411.2,847.8z"/>
	<g id="Icon">
	</g>
</g>
</svg>
