<?xml version="1.0" encoding="utf-8"?>
<!-- Generator: Adobe Illustrator 27.9.4, SVG Export Plug-In . SVG Version: 9.03 Build 54784)  -->
<svg version="1.1" id="Layer_1" xmlns="http://www.w3.org/2000/svg" xmlns:xlink="http://www.w3.org/1999/xlink" x="0px" y="0px"
	 viewBox="0 0 800 800" style="enable-background:new 0 0 800 800;" xml:space="preserve">
<style type="text/css">
	.st0{fill:none;stroke:#000000;stroke-width:31;stroke-miterlimit:133.3333;}
	.st1{fill:none;stroke:#000000;stroke-width:31;stroke-linecap:round;stroke-miterlimit:133.3333;}
</style>
<path class="st0" d="M533.3,133.4c72.5,0.4,111.8,3.6,137.4,29.2C700,191.9,700,239.1,700,333.3v200c0,94.3,0,141.4-29.3,170.7
	c-29.3,29.3-76.4,29.3-170.7,29.3H300c-94.3,0-141.4,0-170.7-29.3C100,674.8,100,627.6,100,533.3v-200c0-94.3,0-141.4,29.3-170.7
	c25.6-25.6,64.9-28.8,137.4-29.2"/>
<path class="st1" d="M350,466.7h216.7"/>
<path class="st1" d="M233.3,466.7H250"/>
<path class="st1" d="M233.3,350H250"/>
<path class="st1" d="M233.3,583.3H250"/>
<path class="st1" d="M350,350h216.7"/>
<path class="st1" d="M350,583.3h216.7"/>
<path class="st0" d="M266.7,116.7c0-27.6,22.4-50,50-50h166.7c27.6,0,50,22.4,50,50V150c0,27.6-22.4,50-50,50H316.7
	c-27.6,0-50-22.4-50-50V116.7z"/>
</svg>
