<?xml version="1.0" ?><!DOCTYPE svg  PUBLIC '-//W3C//DTD SVG 1.1//EN'  'http://www.w3.org/Graphics/SVG/1.1/DTD/svg11.dtd'><svg height="100%" style="fill-rule:evenodd;clip-rule:evenodd;stroke-linejoin:round;stroke-miterlimit:2;" version="1.1" viewBox="0 0 32 32" width="100%" xml:space="preserve" xmlns="http://www.w3.org/2000/svg" xmlns:serif="http://www.serif.com/" xmlns:xlink="http://www.w3.org/1999/xlink"><path d="M29,25l0,2.797c0,0.319 -0.127,0.625 -0.352,0.851c-0.226,0.225 -0.532,0.352 -0.851,0.352l-23.594,-0c-0.319,0 -0.625,-0.127 -0.851,-0.352c-0.225,-0.226 -0.352,-0.532 -0.352,-0.851l0,-2.797l26,0Z" style="fill:#f5f5f5;"/><path d="M29,4.203l0,18.797c0,-0 -26,0 -26,0c-0,0 -0,-18.797 -0,-18.797c0,-0.319 0.127,-0.625 0.352,-0.851c0.226,-0.225 0.532,-0.352 0.851,-0.352l23.594,0c0.319,-0 0.625,0.127 0.851,0.352c0.225,0.226 0.352,0.532 0.352,0.851Z" style="fill:#bcdefd;"/><path d="M1,4.203l0,23.594c-0,0.85 0.337,1.664 0.938,2.265c0.601,0.601 1.415,0.938 2.265,0.938c5.232,0 18.362,0 23.594,0c0.85,0 1.664,-0.337 2.265,-0.938c0.601,-0.601 0.938,-1.415 0.938,-2.265l-0,-23.594c-0,-0.85 -0.337,-1.664 -0.938,-2.265c-0.601,-0.601 -1.415,-0.938 -2.265,-0.938c-5.232,0 -18.362,0 -23.594,0c-0.85,-0 -1.664,0.337 -2.265,0.938c-0.601,0.601 -0.938,1.415 -0.938,2.265Zm28,20.797l0,2.797c0,0.319 -0.127,0.625 -0.352,0.851c-0.226,0.225 -0.532,0.352 -0.851,0.352l-23.594,-0c-0.319,0 -0.625,-0.127 -0.851,-0.352c-0.225,-0.226 -0.352,-0.532 -0.352,-0.851l0,-2.797l26,0Zm-0,-20.797l0,18.797c0,-0 -26,0 -26,0c-0,0 -0,-18.797 -0,-18.797c0,-0.319 0.127,-0.625 0.352,-0.851c0.226,-0.225 0.532,-0.352 0.851,-0.352l23.594,0c0.319,-0 0.625,0.127 0.851,0.352c0.225,0.226 0.352,0.532 0.352,0.851Z" style="fill:#0268c1;"/><path d="M15.572,15.714c0.155,0.31 0.46,0.518 0.805,0.549c0.345,0.031 0.682,-0.119 0.89,-0.396l2.4,-3.2c-0,-0 4,5.333 4,5.333c-0,-0 -15.716,-0 -15.716,-0c0,0 4.382,-8.764 4.382,-8.764c0,0 3.239,6.478 3.239,6.478Z" style="fill:#f5f5f5;"/><path d="M16.637,13.372l-3.409,-6.819c-0.17,-0.339 -0.516,-0.553 -0.895,-0.553c-0.378,-0 -0.725,0.214 -0.894,0.553l-6,12c-0.155,0.31 -0.139,0.678 0.044,0.973c0.182,0.295 0.504,0.474 0.85,0.474l19.334,-0c0.378,-0 0.725,-0.214 0.894,-0.553c0.169,-0.339 0.133,-0.744 -0.094,-1.047l-6,-8c-0.189,-0.252 -0.486,-0.4 -0.8,-0.4c-0.315,0 -0.611,0.148 -0.8,0.4l-2.23,2.972Zm-1.065,2.342c0.155,0.31 0.46,0.518 0.805,0.549c0.345,0.031 0.682,-0.119 0.89,-0.396l2.4,-3.2c-0,-0 4,5.333 4,5.333c-0,-0 -15.716,-0 -15.716,-0c0,0 4.382,-8.764 4.382,-8.764c0,0 3.239,6.478 3.239,6.478Z" style="fill:#0268c1;"/></svg>