<?xml version="1.0" encoding="UTF-8"?>
<svg id="Layer_1" data-name="Layer 1" xmlns="http://www.w3.org/2000/svg" version="1.1" viewBox="0 0 250 68">
  <defs>
    <style>
      .cls-1 {
        fill: #8468ea;
        stroke-width: 0px;
      }
    </style>
  </defs>
  <path class="cls-1" d="M48.2,10.1h15.6c7.5,0,11.9,1.4,14.1,3.4,3.4,3.1,4.4,7.8,3.4,13-.7,3.7-2.3,6.5-4,8.6-2.1,2.5-4.7,4.1-7.2,5.1l6.6,17.5h-12.6l-8.2-23h2c3.1,0,5.8-.3,7.6-1.3,1.7-1,3.3-3.2,3.8-5.9.5-2.5-.4-4.5-1.8-5.5-1.2-.8-3.1-1.3-4.8-1.3h-4.5l-6.8,37h-12.2l8.8-47.7h0Z"/>
  <path class="cls-1" d="M91.6,57.9h-13.2l27.7-47.7h10.5l9.5,47.7h-13.3l-1-6.9h-16.7l-3.5,6.9h0ZM108.1,24.7l-8.2,16.6h10.5l-2.3-16.6h0Z"/>
  <path class="cls-1" d="M140.5,10.1h12.2l-8.8,47.7h-12.2l8.8-47.7h0Z"/>
  <path class="cls-1" d="M211,10.1l-2.2,11.8-1.1,6.1-2.2,11.8-1.2,6.3-2.2,11.8h39l2.2-11.7h0s1.2-6.3,1.2-6.3l2.2-11.8,1.1-6.1,2.2-11.8h-39ZM234.5,28l-2.2,11.8-1.2,6.3h-14.6l1.2-6.3,2.2-11.8,1.1-6.1h14.6l-1.1,6.1h0Z"/>
  <path class="cls-1" d="M185.4,39.2l5.1-29.1h11.7l-8.8,47.7h-10.6l-12.9-28.8-5.1,28.8h-11.7l8.8-47.7h10.5l13,29.1h0Z"/>
  <path class="cls-1" d="M2,10.1l-2,11.8h40.7l2-11.8s-40.7,0-40.7,0ZM10.9,39.8l-1.2,6.3-2.2,11.8h12.2l2.2-11.8,1.2-6.3,2.2-11.8h-12.2s-2.2,11.8-2.2,11.8Z"/>
  <path class="cls-1" d="M78,13.6c-2.3-2.1-6.7-3.4-14.1-3.4h-15.6l-8.8,47.7h12.2l2.1-11.1h6.7l4,11.1h12.6l-6.7-17.5c2.5-1,5.1-2.6,7.2-5.1,1.7-2.1,3.3-5,4-8.6,1-5.2,0-9.9-3.4-13h0ZM69.5,27.7c-.5,2.6-2.1,4.9-3.8,5.9-1.8,1-4.5,1.3-7.6,1.3h-2.3l2.6-14h4.5c1.7,0,3.5.5,4.8,1.3,1.4,1,2.3,3,1.8,5.5h0Z"/>
  <path class="cls-1" d="M91.6,57.9h-13.2l27.7-47.7h10.5l9.5,47.7h-13.3l-1-6.9h-16.7l-3.5,6.9ZM108.1,24.7l-8.2,16.6h10.5l-2.3-16.6h0Z"/>
  <path class="cls-1" d="M140.5,10.1h12.2l-8.8,47.7h-12.2l8.8-47.7h0Z"/>
  <path class="cls-1" d="M185.4,39.2l5.1-29.1h11.7l-8.8,47.7h-10.6l-12.9-28.8-5.1,28.8h-11.7l8.8-47.7h10.5l13,29.1h0Z"/>
</svg>