<svg width="123" height="123" viewBox="0 0 123 123" fill="none" xmlns="http://www.w3.org/2000/svg">
<g filter="url(#filter0_f_7208_4177)">
<circle cx="61.5" cy="61.5" r="59.5" fill="#FFD3D3"/>
</g>
<circle cx="62.0796" cy="61.0796" r="42.0796" fill="#FF3737"/>
<g clip-path="url(#clip0_7208_4177)">
<path d="M45.8587 39.129L62 55.2697L78.0577 39.2126C78.4124 38.8351 78.8397 38.5331 79.3139 38.3247C79.7882 38.1164 80.2996 38.0059 80.8176 38C81.9267 38 82.9903 38.4406 83.7745 39.2247C84.5587 40.0089 84.9993 41.0725 84.9993 42.1815C85.0091 42.6942 84.9139 43.2034 84.7198 43.678C84.5256 44.1526 84.2365 44.5825 83.8703 44.9413L67.6035 60.9983L83.8703 77.2645C84.5595 77.9387 84.9636 78.8517 84.9993 79.8152C84.9993 80.9242 84.5587 81.9878 83.7745 82.772C82.9903 83.5561 81.9267 83.9967 80.8176 83.9967C80.2847 84.0188 79.753 83.9299 79.2563 83.7355C78.7595 83.5411 78.3087 83.2456 77.9323 82.8677L62 66.727L45.9005 82.8259C45.5471 83.1908 45.125 83.4821 44.6585 83.6831C44.192 83.8841 43.6903 83.9906 43.1824 83.9967C42.0733 83.9967 41.0097 83.5561 40.2255 82.772C39.4413 81.9878 39.0007 80.9242 39.0007 79.8152C38.9909 79.3025 39.0861 78.7933 39.2802 78.3187C39.4744 77.8441 39.7635 77.4142 40.1297 77.0554L56.3965 60.9983L40.1297 44.7322C39.4405 44.058 39.0364 43.145 39.0007 42.1815C39.0007 41.0725 39.4413 40.0089 40.2255 39.2247C41.0097 38.4406 42.0733 38 43.1824 38C44.186 38.0125 45.1478 38.4182 45.8587 39.129Z" fill="white"/>
</g>
<defs>
<filter id="filter0_f_7208_4177" x="0" y="0" width="123" height="123" filterUnits="userSpaceOnUse" color-interpolation-filters="sRGB">
<feFlood flood-opacity="0" result="BackgroundImageFix"/>
<feBlend mode="normal" in="SourceGraphic" in2="BackgroundImageFix" result="shape"/>
<feGaussianBlur stdDeviation="1" result="effect1_foregroundBlur_7208_4177"/>
</filter>
<clipPath id="clip0_7208_4177">
<rect width="73.5371" height="73.5371" fill="white" transform="translate(25.7195 23.9026)"/>
</clipPath>
</defs>
</svg>
