<?xml version="1.0" ?><!DOCTYPE svg  PUBLIC '-//W3C//DTD SVG 1.1//EN'  'http://www.w3.org/Graphics/SVG/1.1/DTD/svg11.dtd'><svg height="100%" style="fill-rule:evenodd;clip-rule:evenodd;stroke-linejoin:round;stroke-miterlimit:2;" version="1.1" viewBox="0 0 32 32" width="100%" xml:space="preserve" xmlns="http://www.w3.org/2000/svg" xmlns:serif="http://www.serif.com/" xmlns:xlink="http://www.w3.org/1999/xlink"><path d="M14.998,24.994l2,0.004c0.552,0.001 1.001,-0.446 1.002,-0.998c0.001,-0.552 -0.446,-1.001 -0.998,-1.002l-2,-0.004c-0.552,-0.001 -1.001,0.447 -1.002,0.999c-0.001,0.552 0.446,1 0.998,1.001Z"/><path d="M9,7.065l13.996,0l0,11.92l-7.984,-0.006c-0.551,-0.001 -1,0.447 -1,0.999c-0.001,0.552 0.447,1 0.999,1.001l7.985,0.006l0,4.957c0,0.265 -0.105,0.52 -0.293,0.707c-0.187,0.188 -0.442,0.293 -0.707,0.293l-6.996,-0c-0.552,-0 -1,0.448 -1,1c0,0.552 0.448,1 1,1l6.996,-0c0.796,0 1.559,-0.316 2.122,-0.879c0.562,-0.562 0.878,-1.325 0.878,-2.121c0,-4.83 0,-17.088 0,-21.919c0,-1.656 -1.343,-3 -3,-3l-11.996,0c-1.657,0 -3,1.344 -3,3c-0,2.913 -0,7.977 -0,7.977c0,0.552 0.448,1 1,1c0.552,-0 1,-0.448 1,-1l-0,-4.935Zm13.996,-2l0,-1.042c0,-0.552 -0.447,-0.999 -1,-1c0,0 -11.996,0 -11.996,0c-0.552,0.001 -1,0.448 -1,1l-0,1.042l13.996,0Z"/><path d="M6.99,17.006c-1.656,0 -3,1.344 -3,3c-0,1.656 1.344,3 3,3c-0,0 2,0 2,0c0.552,0 1,0.448 1,1c-0,0.552 -0.448,1 -1,1l-3,0c-0.552,0 -1,0.448 -1,1c-0,0.552 0.448,1 1,1l1.01,0l0,1c0,0.552 0.448,1 1,1c0.552,0 1,-0.448 1,-1l0,-1c1.651,-0.005 2.99,-1.347 2.99,-3c-0,-1.656 -1.344,-3 -3,-3c-0,0 -2,0 -2,0c-0.552,0 -1,-0.448 -1,-1c-0,-0.552 0.448,-1 1,-1c-0,0 3,0 3,0c0.552,0 1,-0.448 1,-1c-0,-0.552 -0.448,-1 -1,-1l-1,0l-0,-1.049c-0,-0.552 -0.448,-1 -1,-1c-0.552,-0 -1,0.448 -1,1l-0,1.049Z"/><g id="Icon"/></svg>