<svg width="123" height="123" viewBox="0 0 123 123" fill="none" xmlns="http://www.w3.org/2000/svg">
<g filter="url(#filter0_f_7206_4238)">
<circle cx="61.5" cy="61.5" r="59.5" fill="#D3FFC4"/>
</g>
<circle cx="62.0796" cy="61.0796" r="42.0796" fill="#39D639"/>
<g clip-path="url(#clip0_7206_4238)">
<path fill-rule="evenodd" clip-rule="evenodd" d="M89.0482 42.2947C89.8298 43.0837 90.2689 44.1538 90.2689 45.2696C90.2689 46.3853 89.8298 47.4554 89.0482 48.2445L57.7973 79.7832C57.3843 80.2001 56.894 80.5308 56.3544 80.7564C55.8147 80.982 55.2363 81.0982 54.6522 81.0982C54.0681 81.0982 53.4897 80.982 52.9501 80.7564C52.4104 80.5308 51.9201 80.2001 51.5071 79.7832L35.9804 64.1162C35.5822 63.7281 35.2645 63.2638 35.046 62.7504C34.8275 62.237 34.7125 61.6849 34.7077 61.1262C34.7029 60.5675 34.8084 60.0134 35.018 59.4963C35.2276 58.9792 35.5372 58.5093 35.9287 58.1143C36.3202 57.7192 36.7857 57.4067 37.2981 57.1952C37.8105 56.9836 38.3595 56.8771 38.9131 56.882C39.4667 56.8869 40.0138 57.0029 40.5225 57.2235C41.0312 57.444 41.4913 57.7645 41.8759 58.1664L54.6508 71.0591L83.1499 42.2947C83.5371 41.9036 83.9968 41.5935 84.5029 41.3818C85.0089 41.1702 85.5513 41.0613 86.099 41.0613C86.6468 41.0613 87.1892 41.1702 87.6952 41.3818C88.2012 41.5935 88.661 41.9036 89.0482 42.2947Z" fill="white"/>
</g>
<defs>
<filter id="filter0_f_7206_4238" x="0" y="0" width="123" height="123" filterUnits="userSpaceOnUse" color-interpolation-filters="sRGB">
<feFlood flood-opacity="0" result="BackgroundImageFix"/>
<feBlend mode="normal" in="SourceGraphic" in2="BackgroundImageFix" result="shape"/>
<feGaussianBlur stdDeviation="1" result="effect1_foregroundBlur_7206_4238"/>
</filter>
<clipPath id="clip0_7206_4238">
<rect width="73.5371" height="73.5371" fill="white" transform="translate(25.7196 23.9026)"/>
</clipPath>
</defs>
</svg>
