<svg width="250" height="68" viewBox="0 0 250 68" fill="none" xmlns="http://www.w3.org/2000/svg">
<path d="M56.635 14.2009H70.62C77.3246 14.2009 81.2534 15.4664 83.2767 17.3953C86.3391 20.2894 87.2068 24.6892 86.3391 29.5723C85.703 33.0083 84.3158 35.6608 82.7558 37.6498C80.9066 40.0005 78.5378 41.5076 76.3404 42.4127L82.2925 58.8093H71.0231L63.6837 37.288H65.4754C68.2499 37.288 70.6763 37.0478 72.2952 36.0826C73.7976 35.1789 75.2424 33.0684 75.7044 30.5975C76.1088 28.2468 75.3576 26.3779 74.0868 25.4127C72.9888 24.6292 71.3123 24.2073 69.8099 24.2073H65.7646L59.6385 58.8093H48.7159L56.6337 14.2009H56.635Z" fill="#5432CD"/>
<path d="M95.5236 58.8093H83.6757L108.526 14.2009H117.946L126.441 58.8093H114.478L113.611 52.3591H98.6436L95.5236 58.8093ZM110.319 27.7635L102.979 43.3165H112.4L110.319 27.7635Z" fill="#5432CD"/>
<path d="M139.325 14.2009H150.248L142.33 58.8093H131.407L139.325 14.2009Z" fill="#5432CD"/>
<path d="M202.55 14.2009L200.601 25.1976L199.586 30.9146L197.63 41.9113L196.581 47.8015L194.633 58.7982H229.569L231.517 47.8196V47.8029L232.566 41.9127L234.522 30.916L235.537 25.199L237.485 14.2023H202.55V14.2009ZM223.599 30.9146L221.643 41.9113L220.595 47.8015H207.503L208.551 41.9113L210.508 30.9146L211.523 25.1976H224.614L223.599 30.9146Z" fill="#5432CD"/>
<path d="M179.604 41.3875L184.17 14.2009H194.629L186.711 58.8093H177.234L165.675 31.9231L161.109 58.8093H150.648L158.566 14.2009H167.986L179.602 41.3875H179.604Z" fill="#5432CD"/>
<path d="M15.2169 14.1995L13.4253 25.1962H49.8822L51.6738 14.1995H15.2169ZM23.2124 41.9084L22.1398 47.8153L20.1339 58.8121H31.0552L33.0611 47.8153L34.1336 41.9084L36.1395 30.9117H25.2183L23.2124 41.9084Z" fill="#5432CD"/>
<path d="M83.2873 17.3953C81.2654 15.4664 77.3273 14.2009 70.624 14.2009H56.6403L48.7239 58.8052H59.6451L61.4863 48.3951H67.4799L71.0297 58.8052H82.3058L76.3457 42.41C78.5498 41.5062 80.9186 39.9991 82.7678 37.6484C84.3278 35.6594 85.715 33.0069 86.3511 29.5709C87.2175 24.6892 86.3511 20.288 83.2887 17.3953H83.2873ZM75.7097 30.5961C75.2477 33.067 73.8029 35.1775 72.3005 36.0812C70.6829 37.045 68.2552 37.2866 65.482 37.2866H63.4507L65.7699 24.2073H69.8152C71.3176 24.2073 72.9928 24.6292 74.0908 25.4127C75.3615 26.3765 76.1127 28.2454 75.7083 30.5961H75.7097Z" fill="#5432CD"/>
<path d="M95.5316 58.8093H83.6837L108.534 14.2009H117.954L126.449 58.8093H114.486L113.619 52.3591H98.6516L95.5316 58.8093ZM110.327 27.7635L102.987 43.3165H112.408L110.327 27.7635Z" fill="#5432CD"/>
<path d="M139.333 14.2009H150.256L142.338 58.8093H131.415L139.333 14.2009Z" fill="#5432CD"/>
<path d="M179.61 41.3875L184.176 14.2009H194.636L186.718 58.8093H177.24L165.682 31.9231L161.115 58.8093H150.655L158.573 14.2009H167.993L179.609 41.3875H179.61Z" fill="#5432CD"/>
</svg>
