<svg width="66" height="65" viewBox="0 0 66 65" fill="none" xmlns="http://www.w3.org/2000/svg"><g clip-path="url(#clip0_58_131)"><path d="M55.9828 65H9.96275C8.13594 64.9983 6.38444 64.2718 5.09269 62.9801C3.80094 61.6883 3.07447 59.9368 3.07275 58.11V14.69C3.07447 12.8632 3.80094 11.1117 5.09269 9.81994C6.38444 8.52819 8.13594 7.80172 9.96275 7.8H17.3728C17.7175 7.8 18.0482 7.93697 18.292 8.18076C18.5358 8.42456 18.6728 8.75522 18.6728 9.1V13C18.6728 13.6896 18.9467 14.3509 19.4343 14.8385C19.9219 15.3261 20.5832 15.6 21.2728 15.6C21.9623 15.6 22.6236 15.3261 23.1112 14.8385C23.5988 14.3509 23.8728 13.6896 23.8728 13V9.1C23.8728 8.75522 24.0097 8.42456 24.2535 8.18076C24.4973 7.93697 24.828 7.8 25.1728 7.8H40.7728C41.1175 7.8 41.4482 7.93697 41.692 8.18076C41.9358 8.42456 42.0728 8.75522 42.0728 9.1V13C42.0728 13.6896 42.3467 14.3509 42.8343 14.8385C43.3219 15.3261 43.9832 15.6 44.6728 15.6C45.3623 15.6 46.0236 15.3261 46.5112 14.8385C46.9988 14.3509 47.2728 13.6896 47.2728 13V9.1C47.2728 8.75522 47.4097 8.42456 47.6535 8.18076C47.8973 7.93697 48.228 7.8 48.5728 7.8H55.9828C57.8096 7.80172 59.5611 8.52819 60.8528 9.81994C62.1446 11.1117 62.871 12.8632 62.8728 14.69V58.11C62.871 59.9368 62.1446 61.6883 60.8528 62.9801C59.5611 64.2718 57.8096 64.9983 55.9828 65ZM9.96275 10.4C8.8255 10.4017 7.73532 10.8543 6.93116 11.6584C6.12701 12.4626 5.67447 13.5528 5.67275 14.69V58.11C5.67447 59.2473 6.12701 60.3374 6.93116 61.1416C7.73532 61.9458 8.8255 62.3983 9.96275 62.4H55.9828C57.12 62.3983 58.2102 61.9458 59.0143 61.1416C59.8185 60.3374 60.271 59.2473 60.2728 58.11V14.69C60.271 13.5528 59.8185 12.4626 59.0143 11.6584C58.2102 10.8543 57.12 10.4017 55.9828 10.4H49.8728V13C49.8728 14.3791 49.3249 15.7018 48.3497 16.677C47.3745 17.6521 46.0519 18.2 44.6728 18.2C43.2936 18.2 41.971 17.6521 40.9958 16.677C40.0206 15.7018 39.4728 14.3791 39.4728 13V10.4H26.4728V13C26.4728 14.3791 25.9249 15.7018 24.9497 16.677C23.9745 17.6521 22.6519 18.2 21.2728 18.2C19.8936 18.2 18.571 17.6521 17.5958 16.677C16.6206 15.7018 16.0728 14.3791 16.0728 13V10.4H9.96275Z" fill="black"/><path d="M44.6728 18.2C43.2936 18.2 41.971 17.6521 40.9958 16.677C40.0206 15.7018 39.4728 14.3791 39.4728 13V5.2C39.4728 3.82087 40.0206 2.49823 40.9958 1.52304C41.971 0.547856 43.2936 0 44.6728 0C46.0519 0 47.3745 0.547856 48.3497 1.52304C49.3249 2.49823 49.8728 3.82087 49.8728 5.2V13C49.8728 14.3791 49.3249 15.7018 48.3497 16.677C47.3745 17.6521 46.0519 18.2 44.6728 18.2ZM44.6728 2.6C43.9832 2.6 43.3219 2.87393 42.8343 3.36152C42.3467 3.84912 42.0728 4.51044 42.0728 5.2V13C42.0728 13.6896 42.3467 14.3509 42.8343 14.8385C43.3219 15.3261 43.9832 15.6 44.6728 15.6C45.3623 15.6 46.0236 15.3261 46.5112 14.8385C46.9988 14.3509 47.2728 13.6896 47.2728 13V5.2C47.2728 4.51044 46.9988 3.84912 46.5112 3.36152C46.0236 2.87393 45.3623 2.6 44.6728 2.6ZM21.2728 18.2C19.8936 18.2 18.571 17.6521 17.5958 16.677C16.6206 15.7018 16.0728 14.3791 16.0728 13V5.2C16.0728 3.82087 16.6206 2.49823 17.5958 1.52304C18.571 0.547856 19.8936 0 21.2728 0C22.6519 0 23.9745 0.547856 24.9497 1.52304C25.9249 2.49823 26.4728 3.82087 26.4728 5.2V13C26.4728 14.3791 25.9249 15.7018 24.9497 16.677C23.9745 17.6521 22.6519 18.2 21.2728 18.2ZM21.2728 2.6C20.5832 2.6 19.9219 2.87393 19.4343 3.36152C18.9467 3.84912 18.6728 4.51044 18.6728 5.2V13C18.6728 13.6896 18.9467 14.3509 19.4343 14.8385C19.9219 15.3261 20.5832 15.6 21.2728 15.6C21.9623 15.6 22.6236 15.3261 23.1112 14.8385C23.5988 14.3509 23.8728 13.6896 23.8728 13V5.2C23.8728 4.51044 23.5988 3.84912 23.1112 3.36152C22.6236 2.87393 21.9623 2.6 21.2728 2.6Z" fill="black"/><path d="M28.6454 41.7367H26.1747C26.0655 41.7367 25.9608 41.6934 25.8835 41.6163C25.8063 41.5392 25.7629 41.4347 25.7629 41.3257V31.472C25.7629 31.363 25.8063 31.2585 25.8835 31.1814C25.9608 31.1043 26.0655 31.061 26.1747 31.061H28.6454C28.7546 31.061 28.8593 31.1043 28.9365 31.1814C29.0138 31.2585 29.0571 31.363 29.0571 31.472V41.3257C29.0571 41.4347 29.0138 41.5392 28.9365 41.6163C28.8593 41.6934 28.7546 41.7367 28.6454 41.7367ZM26.5865 40.9147H28.2336V31.883H26.5865V40.9147Z" fill="#8468EA"/><path d="M31.0873 40.0849H28.6273C28.5185 40.0849 28.4143 40.0414 28.3374 39.9639C28.2605 39.8865 28.2173 39.7815 28.2173 39.6719V33.0647C28.2173 32.9552 28.2605 32.8502 28.3374 32.7727C28.4143 32.6953 28.5185 32.6518 28.6273 32.6518H31.0873C31.196 32.6518 31.3003 32.6953 31.3772 32.7727C31.4541 32.8502 31.4973 32.9552 31.4973 33.0647V39.6719C31.4973 39.7815 31.4541 39.8865 31.3772 39.9639C31.3003 40.0414 31.196 40.0849 31.0873 40.0849ZM29.0373 39.259H30.6773V33.4777H29.0373V39.259ZM16.3272 41.7367H14.2772C14.1685 41.7367 14.0642 41.6932 13.9873 41.6157C13.9104 41.5383 13.8672 41.4332 13.8672 41.3237V31.4129C13.8672 31.3034 13.9104 31.1984 13.9873 31.1209C14.0642 31.0435 14.1685 31 14.2772 31H16.3272C16.4359 31 16.5402 31.0435 16.6171 31.1209C16.694 31.1984 16.7372 31.3034 16.7372 31.4129V41.3237C16.7372 41.4332 16.694 41.5383 16.6171 41.6157C16.5402 41.6932 16.4359 41.7367 16.3272 41.7367ZM14.6872 40.9108H15.9172V31.8259H14.6872V40.9108Z" fill="#8468EA"/><path d="M14.2878 40.0286H11.411C11.302 40.0286 11.1974 39.9857 11.1204 39.9094C11.0433 39.8332 11 39.7297 11 39.6219V33.1148C11 33.0069 11.0433 32.9035 11.1204 32.8272C11.1974 32.7509 11.302 32.7081 11.411 32.7081H14.2878C14.3968 32.7081 14.5013 32.7509 14.5784 32.8272C14.6555 32.9035 14.6988 33.0069 14.6988 33.1148V39.6219C14.6988 39.7297 14.6555 39.8332 14.5784 39.9094C14.5013 39.9857 14.3968 40.0286 14.2878 40.0286ZM11.8219 39.2152H13.8768V33.5215H11.8219V39.2152ZM26.1365 36.775H16.3427C16.2337 36.775 16.1291 36.7322 16.052 36.6559C15.975 36.5796 15.9317 36.4762 15.9317 36.3683C15.9317 36.2605 15.975 36.157 16.052 36.0808C16.1291 36.0045 16.2337 35.9616 16.3427 35.9616H26.1365C26.2455 35.9616 26.35 36.0045 26.4271 36.0808C26.5042 36.157 26.5475 36.2605 26.5475 36.3683C26.5475 36.4762 26.5042 36.5796 26.4271 36.6559C26.35 36.7322 26.2455 36.775 26.1365 36.775Z" fill="#8468EA"/><path d="M53.4471 41.7367H50.9765C50.8673 41.7367 50.7625 41.6934 50.6853 41.6163C50.6081 41.5392 50.5647 41.4347 50.5647 41.3257V31.472C50.5647 31.363 50.6081 31.2585 50.6853 31.1814C50.7625 31.1043 50.8673 31.061 50.9765 31.061H53.4471C53.5563 31.061 53.6611 31.1043 53.7383 31.1814C53.8155 31.2585 53.8589 31.363 53.8589 31.472V41.3257C53.8589 41.4347 53.8155 41.5392 53.7383 41.6163C53.6611 41.6934 53.5563 41.7367 53.4471 41.7367ZM51.3882 40.9147H53.0354V31.883H51.3882V40.9147Z" fill="#808080"/><path d="M55.889 40.0849H53.429C53.3203 40.0849 53.216 40.0414 53.1391 39.9639C53.0622 39.8865 53.019 39.7815 53.019 39.6719V33.0647C53.019 32.9552 53.0622 32.8502 53.1391 32.7727C53.216 32.6953 53.3203 32.6518 53.429 32.6518H55.889C55.9978 32.6518 56.1021 32.6953 56.179 32.7727C56.2559 32.8502 56.2991 32.9552 56.2991 33.0647V39.6719C56.2991 39.7815 56.2559 39.8865 56.179 39.9639C56.1021 40.0414 55.9978 40.0849 55.889 40.0849ZM53.839 39.259H55.479V33.4777H53.839V39.259ZM41.129 41.7367H39.0789C38.9702 41.7367 38.8659 41.6932 38.789 41.6157C38.7121 41.5383 38.6689 41.4332 38.6689 41.3237V31.4129C38.6689 31.3034 38.7121 31.1984 38.789 31.1209C38.8659 31.0435 38.9702 31 39.0789 31H41.129C41.2377 31 41.342 31.0435 41.4189 31.1209C41.4958 31.1984 41.539 31.3034 41.539 31.4129V41.3237C41.539 41.4332 41.4958 41.5383 41.4189 41.6157C41.342 41.6932 41.2377 41.7367 41.129 41.7367ZM39.489 40.9108H40.719V31.8259H39.489V40.9108Z" fill="#808080"/><path d="M39.0895 40.0286H36.2127C36.1037 40.0286 35.9992 39.9857 35.9221 39.9094C35.8451 39.8332 35.8018 39.7297 35.8018 39.6219V33.1148C35.8018 33.0069 35.8451 32.9035 35.9221 32.8272C35.9992 32.7509 36.1037 32.7081 36.2127 32.7081H39.0895C39.1985 32.7081 39.3031 32.7509 39.3801 32.8272C39.4572 32.9035 39.5005 33.0069 39.5005 33.1148V39.6219C39.5005 39.7297 39.4572 39.8332 39.3801 39.9094C39.3031 39.9857 39.1985 40.0286 39.0895 40.0286ZM36.6237 39.2152H38.6786V33.5215H36.6237V39.2152ZM50.9383 36.775H41.1444C41.0354 36.775 40.9309 36.7322 40.8538 36.6559C40.7767 36.5796 40.7334 36.4762 40.7334 36.3683C40.7334 36.2605 40.7767 36.157 40.8538 36.0808C40.9309 36.0045 41.0354 35.9616 41.1444 35.9616H50.9383C51.0473 35.9616 51.1518 36.0045 51.2289 36.0808C51.3059 36.157 51.3492 36.2605 51.3492 36.3683C51.3492 36.4762 51.3059 36.5796 51.2289 36.6559C51.1518 36.7322 51.0473 36.775 50.9383 36.775Z" fill="#808080"/><path d="M28.6454 55.9091H26.1747C26.0655 55.9091 25.9608 55.8658 25.8835 55.7887C25.8063 55.7116 25.7629 55.6071 25.7629 55.4981V45.6444C25.7629 45.5354 25.8063 45.4309 25.8835 45.3538C25.9608 45.2767 26.0655 45.2334 26.1747 45.2334H28.6454C28.7546 45.2334 28.8593 45.2767 28.9365 45.3538C29.0138 45.4309 29.0571 45.5354 29.0571 45.6444V55.4981C29.0571 55.6071 29.0138 55.7116 28.9365 55.7887C28.8593 55.8658 28.7546 55.9091 28.6454 55.9091ZM26.5865 55.0871H28.2336V46.0554H26.5865V55.0871Z" fill="#808080"/><path d="M31.0873 54.2573H28.6273C28.5185 54.2573 28.4143 54.2138 28.3374 54.1364C28.2605 54.0589 28.2173 53.9539 28.2173 53.8444V47.2372C28.2173 47.1276 28.2605 47.0226 28.3374 46.9452C28.4143 46.8677 28.5185 46.8242 28.6273 46.8242H31.0873C31.196 46.8242 31.3003 46.8677 31.3772 46.9452C31.4541 47.0226 31.4973 47.1276 31.4973 47.2372V53.8444C31.4973 53.9539 31.4541 54.0589 31.3772 54.1364C31.3003 54.2138 31.196 54.2573 31.0873 54.2573ZM29.0373 53.4314H30.6773V47.6501H29.0373V53.4314ZM16.3272 55.9091H14.2772C14.1685 55.9091 14.0642 55.8656 13.9873 55.7881C13.9104 55.7107 13.8672 55.6057 13.8672 55.4962V45.5854C13.8672 45.4759 13.9104 45.3708 13.9873 45.2934C14.0642 45.2159 14.1685 45.1724 14.2772 45.1724H16.3272C16.4359 45.1724 16.5402 45.2159 16.6171 45.2934C16.694 45.3708 16.7372 45.4759 16.7372 45.5854V55.4962C16.7372 55.6057 16.694 55.7107 16.6171 55.7881C16.5402 55.8656 16.4359 55.9091 16.3272 55.9091ZM14.6872 55.0832H15.9172V45.9983H14.6872V55.0832Z" fill="#808080"/><path d="M14.2878 54.201H11.411C11.302 54.201 11.1974 54.1581 11.1204 54.0819C11.0433 54.0056 11 53.9022 11 53.7943V47.2872C11 47.1794 11.0433 47.0759 11.1204 46.9996C11.1974 46.9234 11.302 46.8805 11.411 46.8805H14.2878C14.3968 46.8805 14.5013 46.9234 14.5784 46.9996C14.6555 47.0759 14.6988 47.1794 14.6988 47.2872V53.7943C14.6988 53.9022 14.6555 54.0056 14.5784 54.0819C14.5013 54.1581 14.3968 54.201 14.2878 54.201ZM11.8219 53.3876H13.8768V47.6939H11.8219V53.3876ZM26.1365 50.9475H16.3427C16.2337 50.9475 16.1291 50.9046 16.052 50.8283C15.975 50.7521 15.9317 50.6486 15.9317 50.5408C15.9317 50.4329 15.975 50.3295 16.052 50.2532C16.1291 50.1769 16.2337 50.1341 16.3427 50.1341H26.1365C26.2455 50.1341 26.35 50.1769 26.4271 50.2532C26.5042 50.3295 26.5475 50.4329 26.5475 50.5408C26.5475 50.6486 26.5042 50.7521 26.4271 50.8283C26.35 50.9046 26.2455 50.9475 26.1365 50.9475Z" fill="#808080"/><path d="M53.4471 55.9091H50.9765C50.8673 55.9091 50.7625 55.8658 50.6853 55.7887C50.6081 55.7116 50.5647 55.6071 50.5647 55.4981V45.6444C50.5647 45.5354 50.6081 45.4309 50.6853 45.3538C50.7625 45.2767 50.8673 45.2334 50.9765 45.2334H53.4471C53.5563 45.2334 53.6611 45.2767 53.7383 45.3538C53.8155 45.4309 53.8589 45.5354 53.8589 45.6444V55.4981C53.8589 55.6071 53.8155 55.7116 53.7383 55.7887C53.6611 55.8658 53.5563 55.9091 53.4471 55.9091ZM51.3882 55.0871H53.0354V46.0554H51.3882V55.0871Z" fill="#808080"/><path d="M55.889 54.2573H53.429C53.3203 54.2573 53.216 54.2138 53.1391 54.1364C53.0622 54.0589 53.019 53.9539 53.019 53.8444V47.2372C53.019 47.1276 53.0622 47.0226 53.1391 46.9452C53.216 46.8677 53.3203 46.8242 53.429 46.8242H55.889C55.9978 46.8242 56.1021 46.8677 56.179 46.9452C56.2559 47.0226 56.2991 47.1276 56.2991 47.2372V53.8444C56.2991 53.9539 56.2559 54.0589 56.179 54.1364C56.1021 54.2138 55.9978 54.2573 55.889 54.2573ZM53.839 53.4314H55.479V47.6501H53.839V53.4314ZM41.129 55.9091H39.0789C38.9702 55.9091 38.8659 55.8656 38.789 55.7881C38.7121 55.7107 38.6689 55.6057 38.6689 55.4962V45.5854C38.6689 45.4759 38.7121 45.3708 38.789 45.2934C38.8659 45.2159 38.9702 45.1724 39.0789 45.1724H41.129C41.2377 45.1724 41.342 45.2159 41.4189 45.2934C41.4958 45.3708 41.539 45.4759 41.539 45.5854V55.4962C41.539 55.6057 41.4958 55.7107 41.4189 55.7881C41.342 55.8656 41.2377 55.9091 41.129 55.9091ZM39.489 55.0832H40.719V45.9983H39.489V55.0832Z" fill="#808080"/><path d="M39.0895 54.201H36.2127C36.1037 54.201 35.9992 54.1581 35.9221 54.0819C35.8451 54.0056 35.8018 53.9022 35.8018 53.7943V47.2872C35.8018 47.1794 35.8451 47.0759 35.9221 46.9996C35.9992 46.9234 36.1037 46.8805 36.2127 46.8805H39.0895C39.1985 46.8805 39.3031 46.9234 39.3801 46.9996C39.4572 47.0759 39.5005 47.1794 39.5005 47.2872V53.7943C39.5005 53.9022 39.4572 54.0056 39.3801 54.0819C39.3031 54.1581 39.1985 54.201 39.0895 54.201ZM36.6237 53.3876H38.6786V47.6939H36.6237V53.3876ZM50.9383 50.9475H41.1444C41.0354 50.9475 40.9309 50.9046 40.8538 50.8283C40.7767 50.7521 40.7334 50.6486 40.7334 50.5408C40.7334 50.4329 40.7767 50.3295 40.8538 50.2532C40.9309 50.1769 41.0354 50.1341 41.1444 50.1341H50.9383C51.0473 50.1341 51.1518 50.1769 51.2289 50.2532C51.3059 50.3295 51.3492 50.4329 51.3492 50.5408C51.3492 50.6486 51.3059 50.7521 51.2289 50.8283C51.1518 50.9046 51.0473 50.9475 50.9383 50.9475Z" fill="#808080"/><path d="M4.37275 26H61.5728C61.9175 26 62.2482 25.863 62.492 25.6192C62.7358 25.3754 62.8728 25.0448 62.8728 24.7C62.8728 24.3552 62.7358 24.0246 62.492 23.7808C62.2482 23.537 61.9175 23.4 61.5728 23.4H4.37275C4.02797 23.4 3.69731 23.537 3.45352 23.7808C3.20972 24.0246 3.07275 24.3552 3.07275 24.7C3.07275 25.0448 3.20972 25.3754 3.45352 25.6192C3.69731 25.863 4.02797 26 4.37275 26Z" fill="black"/></g><defs><clipPath id="clip0_58_131"><rect width="65" height="65" fill="white" transform="translate(0.472778)"/></clipPath></defs></svg>
