<svg width="71" height="70" viewBox="0 0 71 70" fill="none" xmlns="http://www.w3.org/2000/svg"><g clip-path="url(#clip0_58_145)"><path d="M12.2805 26.803C13.0487 27.3201 13.9519 27.5962 14.8757 27.5962C16.1146 27.5962 17.3028 27.1003 18.1788 26.2177C19.0548 25.3351 19.547 24.1381 19.547 22.8899C19.547 21.9591 19.273 21.0492 18.7597 20.2752C18.2464 19.5013 17.5169 18.898 16.6633 18.5418C15.8098 18.1856 14.8706 18.0924 13.9644 18.274C13.0583 18.4556 12.226 18.9038 11.5727 19.562C10.9194 20.2202 10.4745 21.0588 10.2943 21.9717C10.114 22.8847 10.2065 23.8309 10.5601 24.6909C10.9136 25.5509 11.5124 26.2859 12.2805 26.803Z" fill="black" fill-opacity="0.5"/><path d="M7.40177 42.6562H22.3497C22.5975 42.6562 22.8351 42.5571 23.0103 42.3806C23.1855 42.204 23.2839 41.9646 23.2839 41.715V37.95C23.2839 35.7032 22.3981 33.5485 20.8212 31.9599C19.2444 30.3712 17.1057 29.4787 14.8757 29.4787C12.6457 29.4787 10.5071 30.3712 8.93023 31.9599C7.35339 33.5485 6.46753 35.7032 6.46753 37.95V41.715C6.46753 41.9646 6.56596 42.204 6.74116 42.3806C6.91637 42.5571 7.154 42.6562 7.40177 42.6562Z" fill="black" fill-opacity="0.5"/><path d="M32.6516 26.803C33.4198 27.3201 34.3229 27.5962 35.2468 27.5962C36.4857 27.5962 37.6739 27.1003 38.5499 26.2177C39.4259 25.3351 39.9181 24.1381 39.9181 22.8899C39.9181 21.9591 39.6441 21.0492 39.1308 20.2752C38.6175 19.5013 37.888 18.898 37.0344 18.5418C36.1809 18.1856 35.2416 18.0924 34.3355 18.274C33.4294 18.4556 32.5971 18.9038 31.9438 19.562C31.2905 20.2202 30.8456 21.0588 30.6654 21.9717C30.4851 22.8847 30.5776 23.8309 30.9312 24.6909C31.2847 25.5509 31.8835 26.2859 32.6516 26.803Z" fill="black"/><path d="M27.7729 42.6562H42.7208C42.9686 42.6562 43.2062 42.5571 43.3814 42.3806C43.5566 42.204 43.655 41.9646 43.655 41.715V37.95C43.655 35.7032 42.7692 33.5485 41.1923 31.9599C39.6155 30.3712 37.4768 29.4787 35.2468 29.4787C33.0168 29.4787 30.8782 30.3712 29.3013 31.9599C27.7245 33.5485 26.8386 35.7032 26.8386 37.95V41.715C26.8386 41.9646 26.9371 42.204 27.1123 42.3806C27.2875 42.5571 27.5251 42.6562 27.7729 42.6562Z" fill="black"/><path d="M53.0227 26.803C53.7909 27.3201 54.694 27.5962 55.6179 27.5962C56.8568 27.5962 58.0449 27.1003 58.921 26.2177C59.797 25.3351 60.2891 24.1381 60.2891 22.8899C60.2891 21.9591 60.0152 21.0492 59.5019 20.2752C58.9886 19.5013 58.2591 18.898 57.4055 18.5418C56.552 18.1856 55.6127 18.0924 54.7066 18.274C53.8005 18.4556 52.9681 18.9038 52.3149 19.562C51.6616 20.2202 51.2167 21.0588 51.0365 21.9717C50.8562 22.8847 50.9487 23.8309 51.3023 24.6909C51.6558 25.5509 52.2545 26.2859 53.0227 26.803Z" fill="black" fill-opacity="0.5"/><path d="M48.144 42.6562H63.0919C63.3397 42.6562 63.5773 42.5571 63.7525 42.3806C63.9277 42.204 64.0261 41.9646 64.0261 41.715V37.95C64.0261 35.7032 63.1403 33.5485 61.5634 31.9599C59.9866 30.3712 57.8479 29.4787 55.6179 29.4787C53.3879 29.4787 51.2493 30.3712 49.6724 31.9599C48.0956 33.5485 47.2097 35.7032 47.2097 37.95V41.715C47.2097 41.9646 47.3081 42.204 47.4834 42.3806C47.6586 42.5571 47.8962 42.6562 48.144 42.6562Z" fill="black" fill-opacity="0.5"/><path d="M18.5152 64.4C18.1439 64.4 17.7878 64.2525 17.5253 63.9899C17.2627 63.7274 17.1152 63.3713 17.1152 63C17.1152 62.6287 17.2627 62.2726 17.5253 62.01C17.7878 61.7475 18.1439 61.6 18.5152 61.6H52.1152C52.4865 61.6 52.8426 61.7475 53.1052 62.01C53.3677 62.2726 53.5152 62.6287 53.5152 63C53.5152 63.3713 53.3677 63.7274 53.1052 63.9899C52.8426 64.2525 52.4865 64.4 52.1152 64.4H18.5152Z" fill="black"/><path d="M63.3152 50.4H7.31519C5.45867 50.4 3.67819 49.6625 2.36544 48.3498C1.05268 47.037 0.315186 45.2565 0.315186 43.4L0.315186 12.6C0.315186 10.7435 1.05268 8.96301 2.36544 7.65026C3.67819 6.3375 5.45867 5.60001 7.31519 5.60001H63.3152C65.1717 5.60001 66.9522 6.3375 68.2649 7.65026C69.5777 8.96301 70.3152 10.7435 70.3152 12.6V43.4C70.3152 45.2565 69.5777 47.037 68.2649 48.3498C66.9522 49.6625 65.1717 50.4 63.3152 50.4ZM7.31519 8.40001C6.20128 8.40001 5.13299 8.8425 4.34534 9.63016C3.55768 10.4178 3.11519 11.4861 3.11519 12.6V43.4C3.11519 44.5139 3.55768 45.5822 4.34534 46.3699C5.13299 47.1575 6.20128 47.6 7.31519 47.6H63.3152C64.4291 47.6 65.4974 47.1575 66.285 46.3699C67.0727 45.5822 67.5152 44.5139 67.5152 43.4V12.6C67.5152 11.4861 67.0727 10.4178 66.285 9.63016C65.4974 8.8425 64.4291 8.40001 63.3152 8.40001H7.31519Z" fill="black"/><path d="M43.7151 64.4H26.9151C26.5438 64.4 26.1877 64.2525 25.9252 63.99C25.6626 63.7274 25.5151 63.3713 25.5151 63V49C25.5151 48.6287 25.6626 48.2726 25.9252 48.0101C26.1877 47.7475 26.5438 47.6 26.9151 47.6H43.7151C44.0864 47.6 44.4425 47.7475 44.7051 48.0101C44.9676 48.2726 45.1151 48.6287 45.1151 49V63C45.1151 63.3713 44.9676 63.7274 44.7051 63.99C44.4425 64.2525 44.0864 64.4 43.7151 64.4ZM28.3151 61.6H42.3151V50.4H28.3151V61.6Z" fill="black"/><path d="M55.5747 41.8405L55.5726 41.8383L44.7376 31.123C46.3119 29.0699 47.2952 26.4966 47.2952 23.674C47.2952 16.9667 41.8354 11.5 35.1341 11.5C28.4328 11.5 22.9729 16.9667 22.9729 23.674C22.9729 30.3814 28.4328 35.848 35.1341 35.848C37.9079 35.848 40.5193 34.9054 42.5812 33.2893L53.3711 44.045C53.3713 44.0452 53.3715 44.0454 53.3717 44.0456C53.6952 44.3691 54.0909 44.5 54.4729 44.5C54.8551 44.5 55.2512 44.3689 55.5747 44.045C56.1658 43.4533 56.1658 42.4322 55.5747 41.8405ZM35.0901 32.7335C30.0862 32.7335 26.0411 28.6847 26.0411 23.674C26.0411 18.6633 30.0862 14.6145 35.0901 14.6145C40.0939 14.6145 44.139 18.6633 44.139 23.674C44.139 28.6847 40.0939 32.7335 35.0901 32.7335Z" fill="#8468EA" stroke="white"/></g><defs><clipPath id="clip0_58_145"><rect width="70" height="70" fill="white" transform="translate(0.315186)"/></clipPath></defs></svg>